<?xml version="1.0" encoding="UTF-8"?>
<svg xmlns="http://www.w3.org/2000/svg" viewBox="0 0 257 257">
  <defs>
    <style>
      .cls-1 {
        fill: #333;
      }

      .cls-1, .cls-2 {
        stroke-width: 0px;
      }

      .cls-2 {
        fill: #00e0dd;
      }
    </style>
  </defs>
  <g id="_レイヤー_2" data-name="レイヤー 2">
    <rect class="cls-2" x="0" width="256" height="256"/>
  </g>
  <g id="_レイヤー_1" data-name="レイヤー 1">
    <path class="cls-1" d="M114.32,48.57l-10.12-10.12h-55.64l-10.87,10.87v8.09l88.01,60.19c2.19,1.52,3.29,3.63,3.29,6.32v14.92c0,1.69-.68,3.38-2.02,5.06l-14.42,15.68c-1.69,1.69-3.54,2.53-5.56,2.53l-62.21.25c-2.02,0-3.79-.76-5.31-2.28l-15.43-15.43c-1.52-1.52-2.28-3.29-2.28-5.31v-7.84h15.17v4.81l10.87,10.87,55.89-.25,10.12-11.13v-7.84L25.81,67.79c-2.19-1.52-3.29-3.62-3.29-6.32v-15.17c0-2.02.76-3.79,2.28-5.31l15.43-15.43c1.52-1.52,3.29-2.28,5.31-2.28h61.71c2.02,0,3.79.76,5.31,2.28l14.67,14.67c1.52,1.52,2.28,3.29,2.28,5.31v8.09h-15.17v-5.06Z"/>
    <path class="cls-1" d="M220.12,123.48l-10.12-10.12h-55.64l-10.87,10.87v8.09l88.01,60.19c2.19,1.52,3.29,3.63,3.29,6.32v14.92c0,1.69-.68,3.38-2.02,5.06l-14.42,15.68c-1.69,1.69-3.54,2.53-5.56,2.53l-62.21.25c-2.02,0-3.79-.76-5.31-2.28l-15.43-15.43c-1.52-1.52-2.28-3.29-2.28-5.31v-7.84h15.17v4.81l10.88,10.87,55.89-.25,10.12-11.13v-7.84l-88.01-60.19c-2.19-1.52-3.29-3.62-3.29-6.32v-15.17c0-2.02.76-3.79,2.28-5.31l15.43-15.43c1.52-1.52,3.29-2.28,5.31-2.28h61.71c2.02,0,3.79.76,5.31,2.28l14.67,14.67c1.52,1.52,2.28,3.29,2.28,5.31v8.09h-15.17v-5.06Z"/>
    <path class="cls-1" d="M249,8v241H8V8h241M257,0H0v257h257V0h0Z"/>
  </g>
</svg>