<?xml version="1.0" encoding="UTF-8"?>
<svg xmlns="http://www.w3.org/2000/svg" viewBox="0 0 512 512">
  <defs>
    <style>
      .c {
        fill: #fff;
      }

      .d {
        fill: #0ac9c9;
      }
    </style>
  </defs>
  <g id="a" data-name="背景">
    <rect class="d" width="512" height="512"/>
  </g>
  <g id="b" data-name="レイヤー 1">
    <path class="c" d="M380.3,337.56c0,68.65-55.65,124.3-124.3,124.3s-124.3-55.65-124.3-124.3S249.94,15.8,249.94,15.8c2.33-4.98,6.18-5,8.57-.05,0,0,121.79,253.16,121.79,321.81Z"/>
    <circle class="d" cx="176.3" cy="347.49" r="14.61"/>
    <path class="d" d="M176.31,314.55c-.19,0-.38,0-.57-.02-5.33-.31-9.4-4.88-9.09-10.21,1.49-25.6,6.94-45.7,17.15-63.25,2.68-4.61,8.6-6.18,13.22-3.49,4.61,2.69,6.18,8.6,3.49,13.22-8.63,14.83-13.26,32.2-14.56,54.65-.3,5.14-4.56,9.11-9.64,9.11Z"/>
    <path class="c" d="M256.79,504.04c-35.66,0-70.51-8.12-103.57-24.15-26.28-12.74-51.46-30.46-74.85-52.67-39.67-37.68-60.31-74.95-61.16-76.52-2.65-4.84-.88-10.92,3.97-13.57,4.84-2.65,10.92-.88,13.57,3.96h0c.2.36,20.27,36.5,57.84,72.04,21.86,20.69,45.31,37.14,69.68,48.91,30.22,14.59,62.03,21.99,94.53,21.99s64.21-7.4,94.26-21.98c24.24-11.76,47.49-28.21,69.12-48.88,37.17-35.53,56.86-71.65,57.05-72.01,2.62-4.86,8.68-6.68,13.54-4.06,4.86,2.62,6.69,8.67,4.07,13.53-.84,1.57-21.09,38.86-60.38,76.55-23.16,22.22-48.17,39.95-74.33,52.7-32.9,16.03-67.67,24.16-103.34,24.16Z"/>
    <path class="c" d="M256.67,474.71c-53.69,0-105.6-21.44-150.12-62.01-33.38-30.42-50.78-60.57-51.5-61.84-2.74-4.8-1.07-10.9,3.73-13.64,4.79-2.74,10.9-1.07,13.64,3.72h0c.17.29,16.85,29.09,48.07,57.4,41.25,37.41,87.07,56.38,136.19,56.38s94.69-18.95,135.49-56.34c30.89-28.29,47.25-57.08,47.41-57.37,2.71-4.81,8.8-6.52,13.61-3.82,4.81,2.7,6.53,8.79,3.83,13.6-.71,1.27-17.79,31.44-50.85,61.88-44.1,40.59-95.79,62.05-149.5,62.05Z"/>
  </g>
</svg>